<?xml version="1.0" encoding="UTF-8" standalone="no"?>
<svg
   xmlns:dc="http://purl.org/dc/elements/1.1/"
   xmlns:cc="http://creativecommons.org/ns#"
   xmlns:rdf="http://www.w3.org/1999/02/22-rdf-syntax-ns#"
   xmlns:svg="http://www.w3.org/2000/svg"
   xmlns="http://www.w3.org/2000/svg"
   xmlns:xlink="http://www.w3.org/1999/xlink"
   xmlns:sodipodi="http://sodipodi.sourceforge.net/DTD/sodipodi-0.dtd"
   xmlns:inkscape="http://www.inkscape.org/namespaces/inkscape"
   shape-rendering="auto"
   width="439.35547"
   text-rendering="auto"
   contentScriptType="text/ecmascript"
   color-interpolation="auto"
   color-rendering="auto"
   preserveAspectRatio="xMidYMid meet"
   font-size="12"
   viewBox="0 0 439.35547 336.54999"
   image-rendering="auto"
   stroke-miterlimit="10"
   zoomAndPan="magnify"
   version="1.0"
   contentStyleType="text/css"
   font-style="normal"
   height="336.54999"
   font-weight="normal"
   id="svg2"
   inkscape:version="0.48.4 r9939"
   sodipodi:docname="fedettseg-jelzolampa-pelda.svg"
   style="font-size:12px;font-style:normal;font-weight:normal;fill:#000000;fill-opacity:1;stroke:#000000;stroke-width:1;stroke-linecap:square;stroke-linejoin:miter;stroke-miterlimit:10;stroke-opacity:1;stroke-dasharray:none;stroke-dashoffset:0;font-family:Dialog">
  <line
     clip-path="url(#clipPath22)"
     x1="290"
     x2="261"
     y1="400"
     y2="400"
     id="line407"
     style="fill:none;stroke:#0000ff;stroke-width:1.10000002;stroke-linecap:butt;font-family:Verdana"
     transform="translate(-232.64453,-81)" />
  <line
     clip-path="url(#clipPath22)"
     x1="349"
     x2="349"
     y1="336"
     y2="370"
     id="line309"
     style="fill:none;stroke:#0000ff;stroke-width:1.10000002;stroke-linecap:butt;font-family:Verdana"
     transform="translate(-232.64453,-82.5)" />
  <line
     clip-path="url(#clipPath22)"
     x1="348"
     x2="348"
     y1="173"
     y2="205"
     id="line317"
     style="fill:none;stroke:#0000ff;stroke-width:1.10000002;stroke-linecap:butt;font-family:Verdana"
     transform="translate(-232.64453,-82.5)" />
  <line
     clip-path="url(#clipPath22)"
     x1="349"
     x2="349"
     y1="253"
     y2="288"
     id="line325"
     style="fill:none;stroke:#0000ff;stroke-width:1.10000002;stroke-linecap:butt;font-family:Verdana"
     transform="translate(-232.64453,-82.5)" />
  <line
     clip-path="url(#clipPath22)"
     x1="348"
     x2="348"
     y1="173"
     y2="205"
     id="line383"
     style="fill:none;stroke:#0000ff;stroke-width:1.10000002;stroke-linecap:butt;font-family:Verdana"
     transform="translate(-232.64453,-84.5)" />
  <line
     clip-path="url(#clipPath22)"
     x1="349"
     x2="349"
     y1="253"
     y2="288"
     id="line391"
     style="fill:none;stroke:#0000ff;stroke-width:1.10000002;stroke-linecap:butt;font-family:Verdana"
     transform="translate(-232.64453,-84.5)" />
  <line
     clip-path="url(#clipPath22)"
     x1="349"
     x2="349"
     y1="336"
     y2="370"
     id="line399"
     style="fill:none;stroke:#0000ff;stroke-width:1.10000002;stroke-linecap:butt;font-family:Verdana"
     transform="translate(-232.64453,-84.5)" />
  <metadata
     id="metadata463">
    <rdf:RDF>
      <cc:Work
         rdf:about="">
        <dc:format>image/svg+xml</dc:format>
        <dc:type
           rdf:resource="http://purl.org/dc/dcmitype/StillImage" />
        <dc:title />
      </cc:Work>
    </rdf:RDF>
  </metadata>
  <sodipodi:namedview
     pagecolor="#ffffff"
     bordercolor="#666666"
     borderopacity="1"
     objecttolerance="10"
     gridtolerance="10"
     guidetolerance="10"
     inkscape:pageopacity="0"
     inkscape:pageshadow="2"
     inkscape:window-width="1920"
     inkscape:window-height="1058"
     id="namedview461"
     showgrid="false"
     inkscape:zoom="7.1614728"
     inkscape:cx="285.8676"
     inkscape:cy="136.36627"
     inkscape:window-x="1912"
     inkscape:window-y="-8"
     inkscape:window-maximized="1"
     inkscape:current-layer="svg2"
     fit-margin-top="0"
     fit-margin-left="0"
     fit-margin-right="0"
     fit-margin-bottom="0" />
  <!--Generated by the Batik Graphics2D SVG Generator-->
  <defs
     id="genericDefs">
    <linearGradient
       inkscape:collect="always"
       xlink:href="#linearGradient1"
       id="linearGradient3442"
       gradientUnits="userSpaceOnUse"
       spreadMethod="pad"
       x1="220"
       y1="10"
       x2="220"
       y2="511" />
    <linearGradient
       inkscape:collect="always"
       xlink:href="#linearGradient1"
       id="linearGradient3444"
       gradientUnits="userSpaceOnUse"
       spreadMethod="pad"
       x1="220"
       y1="10"
       x2="220"
       y2="511" />
    <defs
       id="defs1">
      <linearGradient
         spreadMethod="pad"
         xlink:show="other"
         id="linearGradient1"
         xlink:actuate="onLoad"
         xlink:type="simple"
         y2="511"
         gradientUnits="userSpaceOnUse"
         y1="10"
         x2="220"
         x1="220">
        <stop
           id="stop9"
           offset="0%"
           stop-color="white"
           stop-opacity="1" />
        <stop
           id="stop11"
           offset="100%"
           stop-color="white"
           stop-opacity="1" />
      </linearGradient>
      <linearGradient
         spreadMethod="pad"
         xlink:show="other"
         id="linearGradient2"
         xlink:actuate="onLoad"
         xlink:type="simple"
         y2="165"
         gradientUnits="userSpaceOnUse"
         y1="132"
         x2="290"
         x1="290">
        <stop
           id="stop14"
           offset="0%"
           stop-color="white"
           stop-opacity="1" />
        <stop
           id="stop16"
           offset="100%"
           stop-color="white"
           stop-opacity="1" />
      </linearGradient>
      <linearGradient
         spreadMethod="pad"
         xlink:show="other"
         id="linearGradient3"
         xlink:actuate="onLoad"
         xlink:type="simple"
         y2="245"
         gradientUnits="userSpaceOnUse"
         y1="212"
         x2="290"
         x1="290">
        <stop
           id="stop19"
           offset="0%"
           stop-color="white"
           stop-opacity="1" />
        <stop
           id="stop21"
           offset="100%"
           stop-color="white"
           stop-opacity="1" />
      </linearGradient>
      <linearGradient
         spreadMethod="pad"
         xlink:show="other"
         id="linearGradient4"
         xlink:actuate="onLoad"
         xlink:type="simple"
         y2="328"
         gradientUnits="userSpaceOnUse"
         y1="295"
         x2="290"
         x1="290">
        <stop
           id="stop24"
           offset="0%"
           stop-color="white"
           stop-opacity="1" />
        <stop
           id="stop26"
           offset="100%"
           stop-color="white"
           stop-opacity="1" />
      </linearGradient>
      <linearGradient
         spreadMethod="pad"
         xlink:show="other"
         id="linearGradient5"
         xlink:actuate="onLoad"
         xlink:type="simple"
         y2="410"
         gradientUnits="userSpaceOnUse"
         y1="377"
         x2="290"
         x1="290">
        <stop
           id="stop29"
           offset="0%"
           stop-color="white"
           stop-opacity="1" />
        <stop
           id="stop31"
           offset="100%"
           stop-color="white"
           stop-opacity="1" />
      </linearGradient>
      <linearGradient
         spreadMethod="pad"
         xlink:show="other"
         id="linearGradient6"
         xlink:actuate="onLoad"
         xlink:type="simple"
         y2="300"
         gradientUnits="userSpaceOnUse"
         y1="267"
         x2="560"
         x1="560">
        <stop
           id="stop34"
           offset="0%"
           stop-color="white"
           stop-opacity="1" />
        <stop
           id="stop36"
           offset="100%"
           stop-color="white"
           stop-opacity="1" />
      </linearGradient>
      <clipPath
         id="clipPath1"
         clipPathUnits="userSpaceOnUse">
        <path
           id="path39"
           d="m 219,9 478,0 0,503 -478,0 0,-503 z"
           inkscape:connector-curvature="0" />
      </clipPath>
      <clipPath
         id="clipPath2"
         clipPathUnits="userSpaceOnUse">
        <path
           id="path42"
           d="m 226,15 76,0 0,16 -76,0 0,-16 z"
           inkscape:connector-curvature="0" />
      </clipPath>
      <clipPath
         id="clipPath3"
         clipPathUnits="userSpaceOnUse">
        <path
           id="path45"
           d="m 340,79 17,0 0,17 -17,0 0,-17 z"
           inkscape:connector-curvature="0" />
      </clipPath>
      <clipPath
         id="clipPath4"
         clipPathUnits="userSpaceOnUse">
        <path
           id="path48"
           d="m 284,119 129,0 0,60 -129,0 0,-60 z"
           inkscape:connector-curvature="0" />
      </clipPath>
      <clipPath
         id="clipPath5"
         clipPathUnits="userSpaceOnUse">
        <path
           id="path51"
           d="m 289,124 119,0 0,50 -119,0 0,-50 z"
           inkscape:connector-curvature="0" />
      </clipPath>
      <clipPath
         id="clipPath6"
         clipPathUnits="userSpaceOnUse">
        <path
           id="path54"
           d="m 335,130 28,0 0,16 -28,0 0,-16 z"
           inkscape:connector-curvature="0" />
      </clipPath>
      <clipPath
         id="clipPath7"
         clipPathUnits="userSpaceOnUse">
        <path
           id="path57"
           d="m 284,199 129,0 0,60 -129,0 0,-60 z"
           inkscape:connector-curvature="0" />
      </clipPath>
      <clipPath
         id="clipPath8"
         clipPathUnits="userSpaceOnUse">
        <path
           id="path60"
           d="m 289,204 119,0 0,50 -119,0 0,-50 z"
           inkscape:connector-curvature="0" />
      </clipPath>
      <clipPath
         id="clipPath9"
         clipPathUnits="userSpaceOnUse">
        <path
           id="path63"
           d="m 312,210 73,0 0,16 -73,0 0,-16 z"
           inkscape:connector-curvature="0" />
      </clipPath>
      <clipPath
         id="clipPath10"
         clipPathUnits="userSpaceOnUse">
        <path
           id="path66"
           d="m 284,282 129,0 0,60 -129,0 0,-60 z"
           inkscape:connector-curvature="0" />
      </clipPath>
      <clipPath
         id="clipPath11"
         clipPathUnits="userSpaceOnUse">
        <path
           id="path69"
           d="m 289,287 119,0 0,50 -119,0 0,-50 z"
           inkscape:connector-curvature="0" />
      </clipPath>
      <clipPath
         id="clipPath12"
         clipPathUnits="userSpaceOnUse">
        <path
           id="path72"
           d="m 327,293 43,0 0,16 -43,0 0,-16 z"
           inkscape:connector-curvature="0" />
      </clipPath>
      <clipPath
         id="clipPath13"
         clipPathUnits="userSpaceOnUse">
        <path
           id="path75"
           d="m 284,364 129,0 0,60 -129,0 0,-60 z"
           inkscape:connector-curvature="0" />
      </clipPath>
      <clipPath
         id="clipPath14"
         clipPathUnits="userSpaceOnUse">
        <path
           id="path78"
           d="m 289,369 119,0 0,50 -119,0 0,-50 z"
           inkscape:connector-curvature="0" />
      </clipPath>
      <clipPath
         id="clipPath15"
         clipPathUnits="userSpaceOnUse">
        <path
           id="path81"
           d="m 325,375 48,0 0,16 -48,0 0,-16 z"
           inkscape:connector-curvature="0" />
      </clipPath>
      <clipPath
         id="clipPath16"
         clipPathUnits="userSpaceOnUse">
        <path
           id="path84"
           d="m 554,254 124,0 0,60 -124,0 0,-60 z"
           inkscape:connector-curvature="0" />
      </clipPath>
      <clipPath
         id="clipPath17"
         clipPathUnits="userSpaceOnUse">
        <path
           id="path87"
           d="m 559,259 114,0 0,50 -114,0 0,-50 z"
           inkscape:connector-curvature="0" />
      </clipPath>
      <clipPath
         id="clipPath18"
         clipPathUnits="userSpaceOnUse">
        <path
           id="path90"
           d="m 566,265 101,0 0,16 -101,0 0,-16 z"
           inkscape:connector-curvature="0" />
      </clipPath>
      <clipPath
         id="clipPath19"
         clipPathUnits="userSpaceOnUse">
        <path
           id="path93"
           d="M 9,9 211,9 211,411 9,411 9,9 z"
           inkscape:connector-curvature="0" />
      </clipPath>
      <clipPath
         id="clipPath20"
         clipPathUnits="userSpaceOnUse">
        <path
           id="path96"
           d="m 22,15 176,0 0,16 -176,0 0,-16 z"
           inkscape:connector-curvature="0" />
      </clipPath>
      <clipPath
         id="clipPath21"
         clipPathUnits="userSpaceOnUse">
        <path
           id="path99"
           d="m 16,33 146,0 0,100 -146,0 0,-100 z"
           inkscape:connector-curvature="0" />
      </clipPath>
      <clipPath
         id="clipPath22"
         clipPathUnits="userSpaceOnUse">
        <path
           id="path102"
           d="m -1,-1 708,0 0,523 -708,0 0,-523 z"
           inkscape:connector-curvature="0" />
      </clipPath>
      <clipPath
         id="clipPath23"
         clipPathUnits="userSpaceOnUse">
        <path
           id="path105"
           d="m 565,253 11,0 0,9 -11,0 0,-9 z"
           inkscape:connector-curvature="0" />
      </clipPath>
      <clipPath
         id="clipPath24"
         clipPathUnits="userSpaceOnUse">
        <path
           id="path108"
           d="m 455,212 63,0 0,16 -63,0 0,-16 z"
           inkscape:connector-curvature="0" />
      </clipPath>
      <clipPath
         id="clipPath25"
         clipPathUnits="userSpaceOnUse">
        <path
           id="path111"
           d="m 551,264 11,0 0,9 -11,0 0,-9 z"
           inkscape:connector-curvature="0" />
      </clipPath>
      <clipPath
         id="clipPath26"
         clipPathUnits="userSpaceOnUse">
        <path
           id="path114"
           d="m 450,251 63,0 0,16 -63,0 0,-16 z"
           inkscape:connector-curvature="0" />
      </clipPath>
      <clipPath
         id="clipPath27"
         clipPathUnits="userSpaceOnUse">
        <path
           id="path117"
           d="m 345,362 9,0 0,10 -9,0 0,-10 z"
           inkscape:connector-curvature="0" />
      </clipPath>
      <clipPath
         id="clipPath28"
         clipPathUnits="userSpaceOnUse">
        <path
           id="path120"
           d="m 314,345 28,0 0,16 -28,0 0,-16 z"
           inkscape:connector-curvature="0" />
      </clipPath>
      <clipPath
         id="clipPath29"
         clipPathUnits="userSpaceOnUse">
        <path
           id="path123"
           d="m 344,197 9,0 0,10 -9,0 0,-10 z"
           inkscape:connector-curvature="0" />
      </clipPath>
      <clipPath
         id="clipPath30"
         clipPathUnits="userSpaceOnUse">
        <path
           id="path126"
           d="m 314,180 28,0 0,16 -28,0 0,-16 z"
           inkscape:connector-curvature="0" />
      </clipPath>
      <clipPath
         id="clipPath31"
         clipPathUnits="userSpaceOnUse">
        <path
           id="path129"
           d="m 345,280 9,0 0,10 -9,0 0,-10 z"
           inkscape:connector-curvature="0" />
      </clipPath>
      <clipPath
         id="clipPath32"
         clipPathUnits="userSpaceOnUse">
        <path
           id="path132"
           d="m 314,263 28,0 0,16 -28,0 0,-16 z"
           inkscape:connector-curvature="0" />
      </clipPath>
      <clipPath
         id="clipPath33"
         clipPathUnits="userSpaceOnUse">
        <path
           id="path135"
           d="m 344,117 9,0 0,10 -9,0 0,-10 z"
           inkscape:connector-curvature="0" />
      </clipPath>
      <clipPath
         id="clipPath34"
         clipPathUnits="userSpaceOnUse">
        <path
           id="path138"
           d="m 282,136 10,0 0,9 -10,0 0,-9 z"
           inkscape:connector-curvature="0" />
      </clipPath>
      <clipPath
         id="clipPath35"
         clipPathUnits="userSpaceOnUse">
        <path
           id="path141"
           d="m 231,263 28,0 0,16 -28,0 0,-16 z"
           inkscape:connector-curvature="0" />
      </clipPath>
      <clipPath
         id="clipPath36"
         clipPathUnits="userSpaceOnUse">
        <path
           id="path144"
           d="m 406,138 10,0 0,9 -10,0 0,-9 z"
           inkscape:connector-curvature="0" />
      </clipPath>
      <clipPath
         id="clipPath37"
         clipPathUnits="userSpaceOnUse">
        <path
           id="path147"
           d="m 562,124 39,0 0,16 -39,0 0,-16 z"
           inkscape:connector-curvature="0" />
      </clipPath>
      <clipPath
         id="clipPath38"
         clipPathUnits="userSpaceOnUse">
        <path
           id="path150"
           d="m 560,307 11,0 0,9 -11,0 0,-9 z"
           inkscape:connector-curvature="0" />
      </clipPath>
      <clipPath
         id="clipPath39"
         clipPathUnits="userSpaceOnUse">
        <path
           id="path153"
           d="m 461,349 63,0 0,16 -63,0 0,-16 z"
           inkscape:connector-curvature="0" />
      </clipPath>
      <clipPath
         id="clipPath40"
         clipPathUnits="userSpaceOnUse">
        <path
           id="path156"
           d="m 552,287 10,0 0,9 -10,0 0,-9 z"
           inkscape:connector-curvature="0" />
      </clipPath>
      <clipPath
         id="clipPath41"
         clipPathUnits="userSpaceOnUse">
        <path
           id="path159"
           d="m 454,299 63,0 0,16 -63,0 0,-16 z"
           inkscape:connector-curvature="0" />
      </clipPath>
    </defs>
    <linearGradient
       inkscape:collect="always"
       xlink:href="#linearGradient2"
       id="linearGradient3697"
       gradientUnits="userSpaceOnUse"
       spreadMethod="pad"
       x1="290"
       y1="132"
       x2="290"
       y2="165" />
    <linearGradient
       inkscape:collect="always"
       xlink:href="#linearGradient3"
       id="linearGradient3699"
       gradientUnits="userSpaceOnUse"
       spreadMethod="pad"
       x1="290"
       y1="212"
       x2="290"
       y2="245" />
    <linearGradient
       inkscape:collect="always"
       xlink:href="#linearGradient4"
       id="linearGradient3701"
       gradientUnits="userSpaceOnUse"
       spreadMethod="pad"
       x1="290"
       y1="295"
       x2="290"
       y2="328" />
    <linearGradient
       inkscape:collect="always"
       xlink:href="#linearGradient5"
       id="linearGradient3703"
       gradientUnits="userSpaceOnUse"
       spreadMethod="pad"
       x1="290"
       y1="377"
       x2="290"
       y2="410" />
    <linearGradient
       inkscape:collect="always"
       xlink:href="#linearGradient6"
       id="linearGradient3705"
       gradientUnits="userSpaceOnUse"
       spreadMethod="pad"
       x1="560"
       y1="267"
       x2="560"
       y2="300" />
    <linearGradient
       inkscape:collect="always"
       xlink:href="#linearGradient1"
       id="linearGradient3854"
       gradientUnits="userSpaceOnUse"
       spreadMethod="pad"
       x1="220"
       y1="10"
       x2="220"
       y2="511" />
    <linearGradient
       inkscape:collect="always"
       xlink:href="#linearGradient1"
       id="linearGradient3856"
       gradientUnits="userSpaceOnUse"
       spreadMethod="pad"
       x1="220"
       y1="10"
       x2="220"
       y2="511" />
    <linearGradient
       inkscape:collect="always"
       xlink:href="#linearGradient1"
       id="linearGradient3858"
       gradientUnits="userSpaceOnUse"
       spreadMethod="pad"
       x1="220"
       y1="10"
       x2="220"
       y2="511" />
    <linearGradient
       inkscape:collect="always"
       xlink:href="#linearGradient1"
       id="linearGradient3861"
       gradientUnits="userSpaceOnUse"
       spreadMethod="pad"
       x1="220"
       y1="10"
       x2="220"
       y2="511" />
    <linearGradient
       inkscape:collect="always"
       xlink:href="#linearGradient2"
       id="linearGradient4631"
       gradientUnits="userSpaceOnUse"
       spreadMethod="pad"
       x1="290"
       y1="132"
       x2="290"
       y2="165" />
    <linearGradient
       inkscape:collect="always"
       xlink:href="#linearGradient3"
       id="linearGradient4633"
       gradientUnits="userSpaceOnUse"
       spreadMethod="pad"
       x1="290"
       y1="212"
       x2="290"
       y2="245" />
    <linearGradient
       inkscape:collect="always"
       xlink:href="#linearGradient4"
       id="linearGradient4635"
       gradientUnits="userSpaceOnUse"
       spreadMethod="pad"
       x1="290"
       y1="295"
       x2="290"
       y2="328" />
    <linearGradient
       inkscape:collect="always"
       xlink:href="#linearGradient5"
       id="linearGradient4637"
       gradientUnits="userSpaceOnUse"
       spreadMethod="pad"
       x1="290"
       y1="377"
       x2="290"
       y2="410" />
    <linearGradient
       inkscape:collect="always"
       xlink:href="#linearGradient6"
       id="linearGradient4639"
       gradientUnits="userSpaceOnUse"
       spreadMethod="pad"
       x1="560"
       y1="267"
       x2="560"
       y2="300" />
  </defs>
  <circle
     clip-path="url(#clipPath3)"
     r="6.5"
     cx="347.5"
     cy="86.5"
     id="circle171"
     sodipodi:cx="347.5"
     sodipodi:cy="86.5"
     sodipodi:rx="6.5"
     sodipodi:ry="6.5"
     style="fill:#000000;stroke:none;font-family:Verdana"
     transform="translate(-232.14453,-80)" />
  <rect
     x="290"
     y="132"
     clip-path="url(#clipPath5)"
     width="117"
     height="33"
     id="rect183"
     style="fill:url(#linearGradient4631);stroke:none;font-family:Verdana"
     transform="translate(-232.64453,-81)" />
  <path
     clip-path="url(#clipPath5)"
     d="m 290,164.5 c 0,4.1421 3.3579,7.5 7.5,7.5 l 101,0 c 4.1422,0 7.5,-3.3579 7.5,-7.5"
     id="path185"
     inkscape:connector-curvature="0"
     style="fill:#ffffff;fill-rule:evenodd;stroke:none;font-family:Verdana"
     transform="translate(-232.64453,-81)" />
  <path
     clip-path="url(#clipPath5)"
     d="m 406,132.5 c 0,-4.1422 -3.3579,-7.5 -7.5,-7.5 0,0 0,0 0,0 l -101,0 c -4.1422,0 -7.5,3.3579 -7.5,7.5"
     id="path187"
     inkscape:connector-curvature="0"
     style="fill:#ffffff;fill-rule:evenodd;stroke:none;font-family:Verdana"
     transform="translate(-232.64453,-81)" />
  <rect
     x="290"
     y="125"
     clip-path="url(#clipPath5)"
     width="116"
     rx="7.5"
     ry="7.5"
     height="47"
     id="rect189"
     style="fill:none;stroke:#c0c0c0;stroke-width:1.10000002;stroke-linecap:butt;font-family:Verdana"
     transform="translate(-232.64453,-81)" />
  <text
     x="336"
     y="144"
     clip-path="url(#clipPath6)"
     font-weight="bold"
     xml:space="preserve"
     id="text191"
     style="font-weight:bold;fill:#000000;stroke:none;font-family:Verdana"
     transform="translate(-232.64453,-81)">Red</text>
  <rect
     x="290"
     y="212"
     clip-path="url(#clipPath8)"
     width="117"
     height="33"
     id="rect203"
     style="fill:url(#linearGradient4633);stroke:none;font-family:Verdana"
     transform="translate(-232.64453,-81)" />
  <path
     clip-path="url(#clipPath8)"
     d="m 290,244.5 c 0,4.1421 3.3579,7.5 7.5,7.5 l 101,0 c 4.1422,0 7.5,-3.3579 7.5,-7.5"
     id="path205"
     inkscape:connector-curvature="0"
     style="fill:#ffffff;fill-rule:evenodd;stroke:none;font-family:Verdana"
     transform="translate(-232.64453,-81)" />
  <path
     clip-path="url(#clipPath8)"
     d="m 406,212.5 c 0,-4.1422 -3.3579,-7.5 -7.5,-7.5 0,0 0,0 0,0 l -101,0 c -4.1422,0 -7.5,3.3579 -7.5,7.5"
     id="path207"
     inkscape:connector-curvature="0"
     style="fill:#ffffff;fill-rule:evenodd;stroke:none;font-family:Verdana"
     transform="translate(-232.64453,-81)" />
  <rect
     x="290"
     y="205"
     clip-path="url(#clipPath8)"
     width="116"
     rx="7.5"
     ry="7.5"
     height="47"
     id="rect209"
     style="fill:none;stroke:#c0c0c0;stroke-width:1.10000002;stroke-linecap:butt;font-family:Verdana"
     transform="translate(-232.64453,-81)" />
  <text
     x="313"
     y="224"
     clip-path="url(#clipPath9)"
     font-weight="bold"
     xml:space="preserve"
     id="text211"
     style="font-weight:bold;fill:#000000;stroke:none;font-family:Verdana"
     transform="translate(-232.64453,-81)">RedYellow</text>
  <rect
     x="290"
     y="295"
     clip-path="url(#clipPath11)"
     width="117"
     height="33"
     id="rect223"
     style="fill:url(#linearGradient4635);stroke:none;font-family:Verdana"
     transform="translate(-232.64453,-81)" />
  <path
     clip-path="url(#clipPath11)"
     d="m 406,295.5 c 0,-4.1422 -3.3579,-7.5 -7.5,-7.5 0,0 0,0 0,0 l -101,0 c -4.1422,0 -7.5,3.3578 -7.5,7.5"
     id="path227"
     inkscape:connector-curvature="0"
     style="fill:#ffffff;fill-rule:evenodd;stroke:none;font-family:Verdana"
     transform="translate(-232.64453,-81)" />
  <rect
     x="290"
     y="288"
     clip-path="url(#clipPath11)"
     width="116"
     rx="7.5"
     ry="7.5"
     height="47"
     id="rect229"
     style="fill:#ffffff;stroke:#c0c0c0;stroke-width:1.10000002;stroke-linecap:butt;font-family:Verdana"
     transform="translate(-232.64453,-81)" />
  <text
     x="328"
     y="307"
     clip-path="url(#clipPath12)"
     font-weight="bold"
     xml:space="preserve"
     id="text231"
     style="font-weight:bold;fill:#000000;stroke:none;font-family:Verdana"
     transform="translate(-232.64453,-81)">Green</text>
  <rect
     x="290"
     y="377"
     clip-path="url(#clipPath14)"
     width="117"
     height="33"
     id="rect243"
     style="fill:url(#linearGradient4637);stroke:none;font-family:Verdana"
     transform="translate(-232.64453,-81)" />
  <path
     clip-path="url(#clipPath14)"
     d="m 290,409.5 c 0,4.1421 3.3579,7.5 7.5,7.5 l 101,0 c 4.1422,0 7.5,-3.3579 7.5,-7.5"
     id="path245"
     inkscape:connector-curvature="0"
     style="fill:#ffffff;fill-rule:evenodd;stroke:none;font-family:Verdana"
     transform="translate(-232.64453,-81)" />
  <path
     clip-path="url(#clipPath14)"
     d="m 406,377.5 c 0,-4.1422 -3.3579,-7.5 -7.5,-7.5 0,0 0,0 0,0 l -101,0 c -4.1422,0 -7.5,3.3578 -7.5,7.5"
     id="path247"
     inkscape:connector-curvature="0"
     style="fill:#ffffff;fill-rule:evenodd;stroke:none;font-family:Verdana"
     transform="translate(-232.64453,-81)" />
  <rect
     x="290"
     y="370"
     clip-path="url(#clipPath14)"
     width="116"
     rx="7.5"
     ry="7.5"
     height="47"
     id="rect249"
     style="fill:none;stroke:#c0c0c0;stroke-width:1.10000002;stroke-linecap:butt;font-family:Verdana"
     transform="translate(-232.64453,-81)" />
  <text
     x="326"
     y="389"
     clip-path="url(#clipPath15)"
     font-weight="bold"
     xml:space="preserve"
     id="text251"
     style="font-weight:bold;fill:#000000;stroke:none;font-family:Verdana"
     transform="translate(-232.64453,-81)">Yellow</text>
  <rect
     x="560"
     y="267"
     clip-path="url(#clipPath17)"
     width="112"
     height="33"
     id="rect263"
     style="fill:url(#linearGradient4639);stroke:none;font-family:Verdana"
     transform="translate(-232.64453,-81)" />
  <path
     clip-path="url(#clipPath17)"
     d="m 671,267.5 c 0,-4.1422 -3.3579,-7.5 -7.5,-7.5 0,0 0,0 0,0 l -96,0 c -4.1422,0 -7.5,3.3578 -7.5,7.5"
     id="path267"
     inkscape:connector-curvature="0"
     style="fill:#ffffff;fill-rule:evenodd;stroke:none;font-family:Verdana"
     transform="translate(-232.64453,-81)" />
  <rect
     x="560"
     y="260"
     clip-path="url(#clipPath17)"
     width="111"
     rx="7.5"
     ry="7.5"
     height="47"
     id="rect269"
     style="fill:#ffffff;stroke:#c0c0c0;stroke-width:1.10000002000000000;stroke-linecap:butt;font-family:Verdana"
     transform="translate(-232.64453,-81)" />
  <text
     x="567"
     y="279"
     clip-path="url(#clipPath18)"
     font-weight="bold"
     xml:space="preserve"
     id="text271"
     style="font-weight:bold;fill:#000000;stroke:none;font-family:Verdana"
     transform="translate(-232.64453,-81)">BlinkingYellow</text>
  <line
     clip-path="url(#clipPath22)"
     x1="407"
     x2="574"
     y1="163"
     y2="260"
     id="line293"
     style="fill:none;stroke:#404040;stroke-width:1.10000002;stroke-linecap:butt;font-family:Verdana"
     transform="translate(-232.64453,-81)" />
  <polygon
     clip-path="url(#clipPath23)"
     points="566,259 569,254 574,260 "
     id="polygon295"
     style="fill:#404040;stroke:none;font-family:Verdana"
     transform="translate(-232.64453,-81)" />
  <polygon
     clip-path="url(#clipPath23)"
     points="566,259 569,254 574,260 "
     id="polygon297"
     style="fill:none;stroke:#404040;stroke-width:1.10000002;stroke-linecap:butt;font-family:Verdana"
     transform="translate(-232.64453,-81)" />
  <text
     x="456"
     y="226"
     clip-path="url(#clipPath24)"
     xml:space="preserve"
     id="text299"
     style="fill:#000000;stroke:none;font-family:Verdana"
     transform="translate(-232.64453,-121)">toBlinking</text>
  <line
     clip-path="url(#clipPath22)"
     x1="407"
     x2="560"
     y1="230"
     y2="270"
     id="line301"
     style="fill:none;stroke:#404040;stroke-width:1.10000002;stroke-linecap:butt;font-family:Verdana"
     transform="translate(-232.64453,-81)" />
  <polygon
     clip-path="url(#clipPath25)"
     points="552,271 554,265 560,270 "
     id="polygon303"
     style="fill:#404040;stroke:none;font-family:Verdana"
     transform="translate(-232.64453,-81)" />
  <polygon
     clip-path="url(#clipPath25)"
     points="552,271 554,265 560,270 "
     id="polygon305"
     style="fill:none;stroke:#404040;stroke-width:1.10000002;stroke-linecap:butt;font-family:Verdana"
     transform="translate(-232.64453,-81)" />
  <polygon
     clip-path="url(#clipPath27)"
     points="346,363 352,363 349,370 "
     id="polygon311"
     style="fill:#0000ff;stroke:none;font-family:Verdana"
     transform="translate(-232.64453,-82.5)" />
  <polygon
     clip-path="url(#clipPath27)"
     points="346,363 352,363 349,370 "
     id="polygon313"
     style="fill:none;stroke:#0000ff;stroke-width:1.10000002;stroke-linecap:butt;font-family:Verdana"
     transform="translate(-232.64453,-82.5)" />
  <text
     x="315"
     y="359"
     clip-path="url(#clipPath28)"
     xml:space="preserve"
     id="text315"
     style="fill:#0000ff;stroke:none;font-family:Verdana"
     transform="translate(-232.64453,-81)">sw3</text>
  <polygon
     clip-path="url(#clipPath29)"
     points="345,198 351,198 348,205 "
     id="polygon319"
     style="fill:#0000ff;stroke:none;font-family:Verdana"
     transform="translate(-232.64453,-82.5)" />
  <polygon
     clip-path="url(#clipPath29)"
     points="345,198 351,198 348,205 "
     id="polygon321"
     style="fill:none;stroke:#0000ff;stroke-width:1.10000002;stroke-linecap:butt;font-family:Verdana"
     transform="translate(-232.64453,-82.5)" />
  <text
     x="315"
     y="194"
     clip-path="url(#clipPath30)"
     xml:space="preserve"
     id="text323"
     style="fill:#0000ff;stroke:none;font-family:Verdana"
     transform="translate(-232.64453,-81)">sw1</text>
  <polygon
     clip-path="url(#clipPath31)"
     points="346,281 352,281 349,288 "
     id="polygon327"
     style="fill:#0000ff;stroke:none;font-family:Verdana"
     transform="translate(-232.64453,-82.5)" />
  <polygon
     clip-path="url(#clipPath31)"
     points="346,281 352,281 349,288 "
     id="polygon329"
     style="fill:none;stroke:#0000ff;stroke-width:1.10000002;stroke-linecap:butt;font-family:Verdana"
     transform="translate(-232.64453,-82.5)" />
  <text
     x="315"
     y="277"
     clip-path="url(#clipPath32)"
     xml:space="preserve"
     id="text331"
     style="fill:#0000ff;stroke:none;font-family:Verdana"
     transform="translate(-232.64453,-81)">sw2</text>
  <polygon
     clip-path="url(#clipPath33)"
     points="351,118 348,125 345,118 "
     id="polygon335"
     style="fill:#404040;stroke:none;font-family:Verdana"
     transform="translate(-232.64453,-83)" />
  <polygon
     clip-path="url(#clipPath33)"
     points="351,118 348,125 345,118 "
     id="polygon337"
     style="fill:none;stroke:#404040;stroke-width:1.10000002;stroke-linecap:butt;font-family:Verdana"
     transform="translate(-232.64453,-83)" />
  <polygon
     clip-path="url(#clipPath34)"
     points="290,140 283,143 283,137 "
     id="polygon345"
     style="fill:#404040;stroke:none;font-family:Verdana"
     transform="translate(-234.64453,-81)" />
  <polygon
     clip-path="url(#clipPath34)"
     points="290,140 283,143 283,137 "
     id="polygon347"
     style="fill:none;stroke:#404040;stroke-width:1.10000002;stroke-linecap:butt;font-family:Verdana"
     transform="translate(-234.64453,-81)" />
  <line
     clip-path="url(#clipPath22)"
     x1="637"
     x2="637"
     y1="260"
     y2="142"
     id="line351"
     style="fill:none;stroke:#0000ff;stroke-width:1.10000002;stroke-linecap:square;font-family:Verdana"
     transform="translate(-232.64453,-81)" />
  <line
     clip-path="url(#clipPath22)"
     x1="637"
     x2="407"
     y1="142"
     y2="142"
     id="line353"
     style="fill:none;stroke:#0000ff;stroke-width:1.10640013;stroke-linecap:butt;font-family:Verdana"
     transform="matrix(0.98846423,0,0,1,-225.2899,-81)" />
  <polygon
     clip-path="url(#clipPath36)"
     points="414,145 407,142 414,139 "
     id="polygon355"
     style="fill:#0000ff;stroke:none;font-family:Verdana"
     transform="translate(-232.14453,-81)" />
  <polygon
     clip-path="url(#clipPath36)"
     points="414,145 407,142 414,139 "
     id="polygon357"
     style="fill:none;stroke:#0000ff;stroke-width:1.10000002;stroke-linecap:butt;font-family:Verdana"
     transform="translate(-232.14453,-81)" />
  <text
     x="563"
     y="138"
     clip-path="url(#clipPath37)"
     xml:space="preserve"
     id="text359"
     style="fill:#0000ff;stroke:none;font-family:Verdana"
     transform="translate(-232.64453,-81)">toRed</text>
  <line
     clip-path="url(#clipPath22)"
     x1="407"
     x2="569"
     y1="390"
     y2="308"
     id="line361"
     style="fill:none;stroke:#0000ff;stroke-width:1.10000002;stroke-linecap:butt;font-family:Verdana"
     transform="translate(-232.64453,-81)" />
  <polygon
     clip-path="url(#clipPath38)"
     points="564,314 561,308 569,308 "
     id="polygon363"
     style="fill:#0000ff;stroke:none;font-family:Verdana"
     transform="translate(-232.64453,-81)" />
  <polygon
     clip-path="url(#clipPath38)"
     points="564,314 561,308 569,308 "
     id="polygon365"
     style="fill:none;stroke:#0000ff;stroke-width:1.10000002;stroke-linecap:butt;font-family:Verdana"
     transform="translate(-232.64453,-81)" />
  <line
     clip-path="url(#clipPath22)"
     x1="407"
     x2="560"
     y1="306"
     y2="290"
     id="line369"
     style="fill:none;stroke:#404040;stroke-width:1.10000002;stroke-linecap:butt;font-family:Verdana"
     transform="translate(-232.64453,-81)" />
  <polygon
     clip-path="url(#clipPath40)"
     points="553,294 553,288 560,290 "
     id="polygon371"
     style="fill:#404040;stroke:none;font-family:Verdana"
     transform="translate(-232.64453,-81)" />
  <polygon
     clip-path="url(#clipPath40)"
     points="553,294 553,288 560,290 "
     id="polygon373"
     style="fill:none;stroke:#404040;stroke-width:1.10000002;stroke-linecap:butt;font-family:Verdana"
     transform="translate(-232.64453,-81)" />
  <line
     clip-path="url(#clipPath22)"
     x1="348"
     x2="348"
     y1="95"
     y2="125"
     id="line377"
     style="fill:none;stroke:#404040;stroke-width:1.1917212;stroke-linecap:butt;font-family:Verdana"
     transform="matrix(1,0,0,0.85199302,-232.64453,-66.915238)" />
  <polygon
     clip-path="url(#clipPath29)"
     points="345,198 351,198 348,205 "
     id="polygon385"
     style="fill:#0000ff;stroke:none;font-family:Verdana"
     transform="translate(-232.64453,-82.5)" />
  <text
     x="315"
     y="194"
     clip-path="url(#clipPath30)"
     xml:space="preserve"
     id="text389"
     style="fill:#0000ff;stroke:none;font-family:Verdana"
     transform="translate(-232.64453,-81)">sw1</text>
  <polygon
     clip-path="url(#clipPath31)"
     points="346,281 352,281 349,288 "
     id="polygon393"
     style="fill:#0000ff;stroke:none;font-family:Verdana"
     transform="translate(-232.64453,-82.5)" />
  <text
     x="315"
     y="277"
     clip-path="url(#clipPath32)"
     xml:space="preserve"
     id="text397"
     style="fill:#0000ff;stroke:none;font-family:Verdana"
     transform="translate(-232.64453,-81)">sw2</text>
  <polygon
     clip-path="url(#clipPath27)"
     points="346,363 352,363 349,370 "
     id="polygon401"
     style="fill:#0000ff;stroke:none;font-family:Verdana"
     transform="translate(-232.64453,-82.5)" />
  <text
     x="315"
     y="359"
     clip-path="url(#clipPath28)"
     xml:space="preserve"
     id="text405"
     style="fill:#0000ff;stroke:none;font-family:Verdana"
     transform="translate(-232.64453,-81)">sw3</text>
  <line
     clip-path="url(#clipPath22)"
     x1="261"
     x2="261"
     y1="400"
     y2="140"
     id="line409"
     style="fill:#0000ff;fill-opacity:1;stroke:#0000ff;stroke-width:1.10000002;stroke-linecap:square;stroke-miterlimit:10;stroke-dasharray:none;font-family:Verdana"
     transform="translate(-232.64453,-81)" />
  <line
     clip-path="url(#clipPath22)"
     x1="261"
     x2="290"
     y1="140"
     y2="140"
     id="line411"
     style="fill:none;stroke:#0000ff;stroke-width:1.22739971;stroke-linecap:butt;font-family:Verdana"
     transform="matrix(0.80318082,0,0,1,-181.38298,-81)" />
  <polygon
     clip-path="url(#clipPath34)"
     points="290,140 283,143 283,137 "
     id="polygon413"
     style="fill:#404040;stroke:none;font-family:Verdana"
     transform="translate(-234.64453,-81)" />
  <polygon
     clip-path="url(#clipPath34)"
     points="290,140 283,143 283,137 "
     id="polygon415"
     style="fill:#0000ff;fill-opacity:1;stroke:#0000ff;stroke-width:1.10000002;stroke-linecap:butt;font-family:Verdana"
     transform="translate(-234.64453,-81)" />
  <text
     x="232"
     y="277"
     clip-path="url(#clipPath35)"
     xml:space="preserve"
     id="text417"
     style="fill:#0000ff;fill-opacity:1;stroke:none;font-family:Verdana"
     transform="translate(-232.64453,-81)">sw4</text>
  <polygon
     clip-path="url(#clipPath38)"
     points="564,314 561,308 569,308 "
     id="polygon421"
     style="fill:#0000ff;stroke:none;font-family:Verdana"
     transform="translate(-232.64453,-81)" />
  <text
     x="462"
     y="363"
     clip-path="url(#clipPath39)"
     xml:space="preserve"
     id="text425"
     style="fill:#0000ff;stroke:none;font-family:Verdana"
     transform="translate(-232.64453,-71)">toBlinking</text>
  <polygon
     clip-path="url(#clipPath40)"
     points="553,294 553,288 560,290 "
     id="polygon429"
     style="fill:#404040;stroke:none;font-family:Verdana"
     transform="translate(-232.64453,-81)" />
  <polygon
     clip-path="url(#clipPath40)"
     points="553,294 553,288 560,290 "
     id="polygon431"
     style="fill:none;stroke:#404040;stroke-width:1.10000002;stroke-linecap:butt;font-family:Verdana"
     transform="translate(-232.64453,-81)" />
  <text
     x="455"
     y="313"
     clip-path="url(#clipPath41)"
     xml:space="preserve"
     id="text433"
     style="fill:#000000;stroke:none;font-family:Verdana"
     transform="translate(-225.64453,-81)">toBlinking</text>
  <polygon
     clip-path="url(#clipPath25)"
     points="552,271 554,265 560,270 "
     id="polygon437"
     style="fill:#404040;stroke:none;font-family:Verdana"
     transform="translate(-232.64453,-81)" />
  <polygon
     clip-path="url(#clipPath25)"
     points="552,271 554,265 560,270 "
     id="polygon439"
     style="fill:none;stroke:#404040;stroke-width:1.10000002;stroke-linecap:butt;font-family:Verdana"
     transform="translate(-232.64453,-81)" />
  <text
     x="451"
     y="265"
     clip-path="url(#clipPath26)"
     xml:space="preserve"
     id="text441"
     style="fill:#000000;stroke:none;font-family:Verdana"
     transform="translate(-221.64453,-76)">toBlinking</text>
  <polygon
     clip-path="url(#clipPath23)"
     points="566,259 569,254 574,260 "
     id="polygon445"
     style="fill:#404040;stroke:none;font-family:Verdana"
     transform="translate(-232.64453,-81)" />
  <polygon
     clip-path="url(#clipPath23)"
     points="566,259 569,254 574,260 "
     id="polygon447"
     style="fill:none;stroke:#404040;stroke-width:1.10000002;stroke-linecap:butt;font-family:Verdana"
     transform="translate(-232.64453,-81)" />
  <polygon
     clip-path="url(#clipPath36)"
     points="414,145 407,142 414,139 "
     id="polygon455"
     style="fill:#0000ff;stroke:none;font-family:Verdana"
     transform="translate(-232.14453,-81)" />
  <polygon
     clip-path="url(#clipPath36)"
     points="414,145 407,142 414,139 "
     id="polygon457"
     style="fill:none;stroke:#0000ff;stroke-width:1.10000002;stroke-linecap:butt;font-family:Verdana"
     transform="translate(-232.14453,-81)" />
</svg>
