<?xml version="1.0" encoding="UTF-8" standalone="no"?>
<!DOCTYPE svg PUBLIC "-//W3C//DTD SVG 1.1//EN" "http://www.w3.org/Graphics/SVG/1.1/DTD/svg11.dtd">
<!-- Generated by Microsoft Visio, SVG Export little.svg Page-1 -->
<svg xmlns="http://www.w3.org/2000/svg" xmlns:xlink="http://www.w3.org/1999/xlink" xmlns:ev="http://www.w3.org/2001/xml-events"
		xmlns:v="http://schemas.microsoft.com/visio/2003/SVGExtensions/" width="1.85154in" height="1.03277in"
		viewBox="0 0 133.311 74.3593" xml:space="preserve" color-interpolation-filters="sRGB" class="st11">
	<v:documentProperties v:langID="1038" v:metric="true" v:viewMarkup="false"/>

	<style type="text/css">
	<![CDATA[
		.st1 {fill:#ffffff}
		.st2 {stroke:#000000;stroke-linecap:round;stroke-linejoin:round;stroke-width:0.75}
		.st3 {fill:#000000;stroke:#000000;stroke-width:0.75}
		.st4 {marker-end:url(#mrkr4-20);stroke:#7f7f7f;stroke-dasharray:0.75,1.5;stroke-linecap:round;stroke-linejoin:round;stroke-width:0.75}
		.st5 {fill:#7f7f7f;fill-opacity:1;stroke:#7f7f7f;stroke-opacity:1;stroke-width:0.34246575342466}
		.st6 {fill:none;stroke:#7f7f7f;stroke-dasharray:0.75,1.5;stroke-width:0.75}
		.st7 {marker-end:url(#mrkr4-38);marker-start:url(#mrkr4-36);stroke:#000000;stroke-linecap:round;stroke-linejoin:round;stroke-width:2}
		.st8 {fill:#000000;fill-opacity:1;stroke:#000000;stroke-opacity:1;stroke-width:0.58139534883721}
		.st9 {fill:none;stroke:none;stroke-linecap:round;stroke-linejoin:round;stroke-width:0.75}
		.st10 {fill:#000000;font-family:Calibri;font-size:1.00001em}
		.st11 {fill:none;fill-rule:evenodd;font-size:12px;overflow:visible;stroke-linecap:square;stroke-miterlimit:3}
	]]>
	</style>

	<defs id="Markers">
		<g id="lend4">
			<path d="M 2 1 L 0 0 L 2 -1 L 2 1 " style="stroke:none"/>
		</g>
		<marker id="mrkr4-20" class="st5" v:arrowType="4" v:arrowSize="0" v:setback="5.36" refX="-5.36" orient="auto"
				markerUnits="strokeWidth" overflow="visible">
			<use xlink:href="#lend4" transform="scale(-2.92,-2.92) "/>
		</marker>
		<marker id="mrkr4-36" class="st8" v:arrowType="4" v:arrowSize="0" v:setback="3.26" refX="3.26" orient="auto"
				markerUnits="strokeWidth" overflow="visible">
			<use xlink:href="#lend4" transform="scale(1.72) "/>
		</marker>
		<marker id="mrkr4-38" class="st8" v:arrowType="4" v:arrowSize="0" v:setback="3.44" refX="-3.44" orient="auto"
				markerUnits="strokeWidth" overflow="visible">
			<use xlink:href="#lend4" transform="scale(-1.72,-1.72) "/>
		</marker>
	</defs>
	<g v:mID="0" v:index="1" v:groupContext="foregroundPage">
		<v:userDefs>
			<v:ud v:nameU="PEHideTags"/>
		</v:userDefs>
		<title>Page-1</title>
		<v:pageProperties v:drawingScale="0.0393701" v:pageScale="0.0393701" v:drawingUnits="24" v:shadowOffsetX="8.50394"
				v:shadowOffsetY="-8.50394"/>
		<v:layer v:name="Equipment" v:index="0"/>
		<v:layer v:name="Connector" v:index="1"/>
		<g id="shape330-1" v:mID="330" v:groupContext="shape" v:layerMember="0" transform="translate(33.3484,-24.378)">
			<title>Conveyor</title>
			<v:custProps>
				<v:cp v:nameU="SubType" v:lbl="Number of circles" v:type="1" v:format="One Circle;Two Circles" v:langID="1033"
						v:val="VT4(Two Circles)"/>
				<v:cp v:nameU="SubType2" v:lbl="Number of lines" v:type="1" v:format="One Line;Two Lines" v:langID="1033"
						v:val="VT4(Two Lines)"/>
				<v:cp v:nameU="Description" v:lbl="Description" v:type="0" v:sortKey="0" v:langID="1033"/>
				<v:cp v:nameU="Material" v:lbl="Material" v:type="0" v:sortKey="1" v:langID="1033"/>
				<v:cp v:nameU="Manufacturer" v:lbl="Manufacturer" v:type="0" v:sortKey="2" v:langID="1033"/>
				<v:cp v:nameU="Model" v:lbl="Model" v:type="0" v:sortKey="3" v:langID="1033"/>
			</v:custProps>
			<v:userDefs>
				<v:ud v:nameU="SubType" v:val="VT0(1):26"/>
				<v:ud v:nameU="SubType2" v:val="VT0(1):26"/>
				<v:ud v:nameU="visVersion" v:val="VT0(15):26"/>
				<v:ud v:nameU="TextCH" v:prompt="Determines text control handle visibility." v:val="VT0(5):26"/>
				<v:ud v:nameU="SOLSH" v:val="VT4({D7D7DB7E-3668-43e5-AF97-97F58AB229A5})"/>
				<v:ud v:nameU="ShapeClass" v:val="VT4(Equipment)"/>
				<v:ud v:nameU="PETagFormat" v:prompt="E-0" v:val="VT4(Equipment)"/>
				<v:ud v:nameU="PETagNumber"/>
				<v:ud v:nameU="PEHideTag"/>
				<v:ud v:nameU="PEPageHideTags" v:val="VT0(0):26"/>
				<v:ud v:nameU="PELayout" v:val="VT0(0):26"/>
				<v:ud v:nameU="CPMSetList" v:prompt="Description,Material,Manufacturer,Model" v:val="VT4(Equipment)"/>
				<v:ud v:nameU="PEComponentTag" v:val="VT4(E-0)"/>
			</v:userDefs>
			<path d="M8.5 65.86 A8.50394 8.50394 -180 1 0 -8.5 65.86 A8.50394 8.50394 -180 1 0 8.5 65.86 ZM79.37 65.86 A8.50394 8.50394
						 -180 1 0 62.36 65.86 A8.50394 8.50394 -180 1 0 79.37 65.86 Z" class="st1"/>
			<path d="M8.5 65.86 A8.50394 8.50394 -180 1 0 -8.5 65.86 A8.50394 8.50394 -180 1 0 8.5 65.86" class="st2"/>
			<path d="M79.37 65.86 A8.50394 8.50394 -180 1 0 62.36 65.86 A8.50394 8.50394 -180 1 0 79.37 65.86" class="st2"/>
			<path d="M0 74.36 L70.87 74.36" class="st2"/>
			<path d="M0 57.35 L70.87 57.35" class="st2"/>
		</g>
		<g id="shape331-7" v:mID="331" v:groupContext="shape" transform="translate(26.2618,-41.3859)">
			<title>Circle.331</title>
			<v:userDefs>
				<v:ud v:nameU="visVersion" v:val="VT0(15):26"/>
			</v:userDefs>
			<path d="M0 68.69 A5.66929 5.66929 0 1 1 11.34 68.69 A5.66929 5.66929 0 1 1 0 68.69 Z" class="st3"/>
		</g>
		<g id="shape332-9" v:mID="332" v:groupContext="shape" transform="translate(121.222,-59.8111)">
			<title>Circle.332</title>
			<v:userDefs>
				<v:ud v:nameU="visVersion" v:val="VT0(15):26"/>
			</v:userDefs>
			<path d="M0 68.69 A5.66929 5.66929 0 1 1 11.34 68.69 A5.66929 5.66929 0 1 1 0 68.69 Z" class="st3"/>
		</g>
		<g id="shape333-11" v:mID="333" v:groupContext="shape" transform="translate(50.3563,-41.3859)">
			<title>Circle.333</title>
			<v:userDefs>
				<v:ud v:nameU="visVersion" v:val="VT0(15):26"/>
			</v:userDefs>
			<path d="M0 68.69 A5.66929 5.66929 0 1 1 11.34 68.69 A5.66929 5.66929 0 1 1 0 68.69 Z" class="st3"/>
		</g>
		<g id="shape334-13" v:mID="334" v:groupContext="shape" transform="translate(75.8681,-41.3859)">
			<title>Circle.334</title>
			<v:userDefs>
				<v:ud v:nameU="visVersion" v:val="VT0(15):26"/>
			</v:userDefs>
			<path d="M0 68.69 A5.66929 5.66929 0 1 1 11.34 68.69 A5.66929 5.66929 0 1 1 0 68.69 Z" class="st3"/>
		</g>
		<g id="shape335-15" v:mID="335" v:groupContext="shape" v:layerMember="1" transform="translate(104.215,-52.0158)">
			<title>Dynamic connector.335</title>
			<path d="M0 73.65 C0 70.76 5.12 64.59 12.75 61.93 L13.1 61.85" class="st4"/>
		</g>
		<g id="shape336-21" v:mID="336" v:groupContext="shape" v:layerMember="1" transform="translate(12.0886,-66.8977)">
			<title>Dynamic connector.336</title>
			<path d="M0 74.36 C12.17 74.36 17.03 76.45 19.05 84.22 L19.12 84.58" class="st4"/>
		</g>
		<g id="shape337-26" v:mID="337" v:groupContext="shape" transform="translate(98.5453,-41.3859)">
			<title>Circle.337</title>
			<v:userDefs>
				<v:ud v:nameU="visVersion" v:val="VT0(15):26"/>
			</v:userDefs>
			<path d="M0 68.69 A5.66929 5.66929 0 1 1 11.34 68.69 A5.66929 5.66929 0 1 1 0 68.69 Z" class="st6"/>
		</g>
		<g id="shape338-28" v:mID="338" v:groupContext="shape" transform="translate(0.75,-61.2284)">
			<title>Circle.338</title>
			<v:userDefs>
				<v:ud v:nameU="visVersion" v:val="VT0(15):26"/>
			</v:userDefs>
			<path d="M0 68.69 A5.66929 5.66929 0 1 1 11.34 68.69 A5.66929 5.66929 0 1 1 0 68.69 Z" class="st6"/>
		</g>
		<g id="shape339-30" v:mID="339" v:groupContext="shape" v:layerMember="1" transform="translate(33.3484,-10.2048)">
			<title>Dynamic connector.339</title>
			<path d="M6.52 67.27 L6.88 67.27 L63.99 67.27" class="st7"/>
		</g>
		<g id="shape340-39" v:mID="340" v:groupContext="shape" transform="translate(37.5775,-0.375)">
			<title>Sheet.340</title>
			<desc>$R$</desc>
			<v:textBlock v:margins="rect(4,4,4,4)" v:tabSpace="42.5197"/>
			<v:textRect cx="30.4724" cy="67.2727" width="60.95" height="14.1732"/>
			<rect x="0" y="60.1861" width="60.9449" height="14.1732" class="st9"/>
			<text x="26.56" y="70.87" class="st10" v:langID="1038"><v:paragraph v:horizAlign="1"/><v:tabList/>$R$</text>		</g>
		<g id="shape342-42" v:mID="342" v:groupContext="shape" v:layerMember="1" transform="translate(56.0256,-48.4725)">
			<title>Dynamic connector.342</title>
			<path d="M6.52 67.27 L6.88 67.27 L18.63 67.27" class="st7"/>
		</g>
		<g id="shape343-49" v:mID="343" v:groupContext="shape" transform="translate(34.4114,-59.8111)">
			<title>Sheet.343</title>
			<desc>$1/X$</desc>
			<v:textBlock v:margins="rect(4,4,4,4)" v:tabSpace="42.5197"/>
			<v:textRect cx="38.622" cy="67.2727" width="77.25" height="14.1732"/>
			<rect x="0" y="60.1861" width="77.2441" height="14.1732" class="st9"/>
			<text x="24.07" y="70.87" class="st10" v:langID="1038"><v:paragraph v:horizAlign="1"/><v:tabList/>$1/X$</text>		</g>
		<g id="shape344-52" v:mID="344" v:groupContext="shape" transform="translate(39.0177,-25.7954)">
			<title>Sheet.344</title>
			<desc>$N$</desc>
			<v:textBlock v:margins="rect(4,4,4,4)" v:tabSpace="42.5197"/>
			<v:textRect cx="30.4724" cy="67.2727" width="60.95" height="14.1732"/>
			<rect x="0" y="60.1861" width="60.9449" height="14.1732" class="st9"/>
			<text x="25.94" y="70.87" class="st10" v:langID="1038"><v:paragraph v:horizAlign="1"/><v:tabList/>$N$</text>		</g>
	</g>
</svg>
