<?xml version="1.0" encoding="UTF-8" standalone="no"?>
<!DOCTYPE svg PUBLIC "-//W3C//DTD SVG 1.1//EN" "http://www.w3.org/Graphics/SVG/1.1/DTD/svg11.dtd">
<!-- Generated by Microsoft Visio, SVG Export subsystems.svg Page-1 -->
<svg xmlns="http://www.w3.org/2000/svg" xmlns:xlink="http://www.w3.org/1999/xlink" xmlns:ev="http://www.w3.org/2001/xml-events"
		xmlns:v="http://schemas.microsoft.com/visio/2003/SVGExtensions/" width="4.4759in" height="1.57971in"
		viewBox="0 0 322.265 113.739" xml:space="preserve" color-interpolation-filters="sRGB" class="st12">
	<v:documentProperties v:langID="1038" v:metric="true" v:viewMarkup="false"/>

	<style type="text/css">
	<![CDATA[
		.st1 {fill:#ffffff;stroke:#000000;stroke-width:0.5}
		.st2 {fill:#000000;font-family:Calibri;font-size:0.833336em}
		.st3 {stroke:#000000;stroke-width:2}
		.st4 {fill:#000000;stroke:#000000;stroke-width:0.75}
		.st5 {marker-start:url(#mrkr4-43);stroke:#000000;stroke-linecap:round;stroke-linejoin:round;stroke-width:0.75}
		.st6 {fill:#000000;fill-opacity:1;stroke:#000000;stroke-opacity:1;stroke-width:0.34246575342466}
		.st7 {marker-end:url(#mrkr4-74);stroke:#7f7f7f;stroke-dasharray:0.75,1.5;stroke-linecap:round;stroke-linejoin:round;stroke-width:0.75}
		.st8 {fill:#7f7f7f;fill-opacity:1;stroke:#7f7f7f;stroke-opacity:1;stroke-width:0.34246575342466}
		.st9 {stroke:#000000;stroke-linecap:round;stroke-linejoin:round;stroke-width:0.24}
		.st10 {fill:none;stroke:none;stroke-linecap:round;stroke-linejoin:round;stroke-width:0.75}
		.st11 {fill:#000000;font-family:Calibri;font-size:1.00001em}
		.st12 {fill:none;fill-rule:evenodd;font-size:12px;overflow:visible;stroke-linecap:square;stroke-miterlimit:3}
	]]>
	</style>

	<defs id="Markers">
		<g id="lend4">
			<path d="M 2 1 L 0 0 L 2 -1 L 2 1 " style="stroke:none"/>
		</g>
		<marker id="mrkr4-43" class="st6" v:arrowType="4" v:arrowSize="0" v:setback="5.36" refX="5.36" orient="auto"
				markerUnits="strokeWidth" overflow="visible">
			<use xlink:href="#lend4" transform="scale(2.92) "/>
		</marker>
		<marker id="mrkr4-74" class="st8" v:arrowType="4" v:arrowSize="0" v:setback="5.84" refX="-5.84" orient="auto"
				markerUnits="strokeWidth" overflow="visible">
			<use xlink:href="#lend4" transform="scale(-2.92,-2.92) "/>
		</marker>
	</defs>
	<g v:mID="0" v:index="1" v:groupContext="foregroundPage">
		<title>Page-1</title>
		<v:pageProperties v:drawingScale="0.0393701" v:pageScale="0.0393701" v:drawingUnits="24" v:shadowOffsetX="8.50394"
				v:shadowOffsetY="-8.50394"/>
		<v:layer v:name="Connector" v:index="0"/>
		<g id="shape347-1" v:mID="347" v:groupContext="shape" transform="translate(216.235,-41.4774)">
			<title>Rounded Rectangle.347</title>
			<desc>Subsystem n</desc>
			<v:userDefs>
				<v:ud v:nameU="CTypeTopLeftSnip" v:prompt="" v:val="VT0(0):5"/>
				<v:ud v:nameU="CTypeTopRightSnip" v:prompt="" v:val="VT0(0):5"/>
				<v:ud v:nameU="CTypeBotLeftSnip" v:prompt="" v:val="VT0(0):5"/>
				<v:ud v:nameU="CTypeBotRightSnip" v:prompt="" v:val="VT0(0):5"/>
				<v:ud v:nameU="CornerLockHoriz" v:prompt="" v:val="VT0(1):5"/>
				<v:ud v:nameU="CornerLockVert" v:prompt="" v:val="VT0(1):5"/>
				<v:ud v:nameU="CornerLockDiag" v:prompt="" v:val="VT0(0):5"/>
				<v:ud v:nameU="TopLeftOffset" v:prompt="" v:val="VT0(0.15748031496063):24"/>
				<v:ud v:nameU="TopRightOffset" v:prompt="" v:val="VT0(0.15748031496063):24"/>
				<v:ud v:nameU="BotLeftOffset" v:prompt="" v:val="VT0(0.15748031496063):24"/>
				<v:ud v:nameU="BotRightOffset" v:prompt="" v:val="VT0(0.15748031496063):24"/>
				<v:ud v:nameU="visVersion" v:prompt="" v:val="VT0(15):26"/>
				<v:ud v:nameU="TopLeftOffset" v:prompt="" v:val="VT0(0.13157645626809):1"/>
				<v:ud v:nameU="TopRightOffset" v:prompt="" v:val="VT0(0.13157645626809):1"/>
				<v:ud v:nameU="BotLeftOffset" v:prompt="" v:val="VT0(0.13157645626809):1"/>
				<v:ud v:nameU="BotRightOffset" v:prompt="" v:val="VT0(0.13157645626809):1"/>
			</v:userDefs>
			<v:textBlock v:margins="rect(4,4,4,4)" v:tabSpace="42.5197"/>
			<v:textRect cx="30.7882" cy="104.266" width="61.58" height="18.947"/>
			<path d="M9.47 113.74 L52.1 113.74 A9.47335 9.47335 -180 0 0 61.58 104.27 A9.47335 9.47335 -180 0 0 52.1 94.79 L9.47
						 94.79 A9.47335 9.47335 -180 0 0 -0 104.27 A9.47335 9.47335 -180 0 0 9.47 113.74 Z" class="st1"/>
			<text x="5.15" y="107.27" class="st2" v:langID="1038"><v:paragraph v:horizAlign="1"/><v:tabList/>Subsystem n</text>		</g>
		<g id="shape399-4" v:mID="399" v:groupContext="shape" v:layerMember="0" transform="translate(228.063,-53.3829)">
			<title>Dynamic connector.399</title>
			<path d="M0 106.65 L37.98 106.65" class="st3"/>
		</g>
		<g id="shape355-7" v:mID="355" v:groupContext="shape" transform="translate(93.5297,-41.4774)">
			<title>Rounded Rectangle.355</title>
			<desc>Subsystem 2</desc>
			<v:userDefs>
				<v:ud v:nameU="CTypeTopLeftSnip" v:prompt="" v:val="VT0(0):5"/>
				<v:ud v:nameU="CTypeTopRightSnip" v:prompt="" v:val="VT0(0):5"/>
				<v:ud v:nameU="CTypeBotLeftSnip" v:prompt="" v:val="VT0(0):5"/>
				<v:ud v:nameU="CTypeBotRightSnip" v:prompt="" v:val="VT0(0):5"/>
				<v:ud v:nameU="CornerLockHoriz" v:prompt="" v:val="VT0(1):5"/>
				<v:ud v:nameU="CornerLockVert" v:prompt="" v:val="VT0(1):5"/>
				<v:ud v:nameU="CornerLockDiag" v:prompt="" v:val="VT0(0):5"/>
				<v:ud v:nameU="TopLeftOffset" v:prompt="" v:val="VT0(0.15748031496063):24"/>
				<v:ud v:nameU="TopRightOffset" v:prompt="" v:val="VT0(0.15748031496063):24"/>
				<v:ud v:nameU="BotLeftOffset" v:prompt="" v:val="VT0(0.15748031496063):24"/>
				<v:ud v:nameU="BotRightOffset" v:prompt="" v:val="VT0(0.15748031496063):24"/>
				<v:ud v:nameU="visVersion" v:prompt="" v:val="VT0(15):26"/>
				<v:ud v:nameU="TopLeftOffset" v:prompt="" v:val="VT0(0.13157645626809):1"/>
				<v:ud v:nameU="TopRightOffset" v:prompt="" v:val="VT0(0.13157645626809):1"/>
				<v:ud v:nameU="BotLeftOffset" v:prompt="" v:val="VT0(0.13157645626809):1"/>
				<v:ud v:nameU="BotRightOffset" v:prompt="" v:val="VT0(0.13157645626809):1"/>
			</v:userDefs>
			<v:textBlock v:margins="rect(4,4,4,4)" v:tabSpace="42.5197"/>
			<v:textRect cx="30.7882" cy="104.266" width="61.58" height="18.947"/>
			<path d="M9.47 113.74 L52.1 113.74 A9.47335 9.47335 -180 0 0 61.58 104.27 A9.47335 9.47335 -180 0 0 52.1 94.79 L9.47
						 94.79 A9.47335 9.47335 -180 0 0 -0 104.27 A9.47335 9.47335 -180 0 0 9.47 113.74 Z" class="st1"/>
			<text x="5.24" y="107.27" class="st2" v:langID="1038"><v:paragraph v:horizAlign="1"/><v:tabList/>Subsystem 2</text>		</g>
		<g id="shape396-10" v:mID="396" v:groupContext="shape" v:layerMember="0" transform="translate(99.4646,-53.3378)">
			<title>Dynamic connector.396</title>
			<path d="M3.87 106.65 L10.3 106.65" class="st3"/>
		</g>
		<g id="shape397-13" v:mID="397" v:groupContext="shape" v:layerMember="0" transform="translate(116.472,-53.3378)">
			<title>Dynamic connector.397</title>
			<path d="M3.87 106.65 L10.3 106.65" class="st3"/>
		</g>
		<g id="shape398-16" v:mID="398" v:groupContext="shape" v:layerMember="0" transform="translate(133.48,-53.3378)">
			<title>Dynamic connector.398</title>
			<path d="M3.87 106.65 L10.3 106.65" class="st3"/>
		</g>
		<g id="shape346-19" v:mID="346" v:groupContext="shape" transform="translate(8.66142,-41.4774)">
			<title>Rounded Rectangle.346</title>
			<desc>Subsystem 1</desc>
			<v:userDefs>
				<v:ud v:nameU="CTypeTopLeftSnip" v:prompt="" v:val="VT0(0):5"/>
				<v:ud v:nameU="CTypeTopRightSnip" v:prompt="" v:val="VT0(0):5"/>
				<v:ud v:nameU="CTypeBotLeftSnip" v:prompt="" v:val="VT0(0):5"/>
				<v:ud v:nameU="CTypeBotRightSnip" v:prompt="" v:val="VT0(0):5"/>
				<v:ud v:nameU="CornerLockHoriz" v:prompt="" v:val="VT0(1):5"/>
				<v:ud v:nameU="CornerLockVert" v:prompt="" v:val="VT0(1):5"/>
				<v:ud v:nameU="CornerLockDiag" v:prompt="" v:val="VT0(0):5"/>
				<v:ud v:nameU="TopLeftOffset" v:prompt="" v:val="VT0(0.15748031496063):24"/>
				<v:ud v:nameU="TopRightOffset" v:prompt="" v:val="VT0(0.15748031496063):24"/>
				<v:ud v:nameU="BotLeftOffset" v:prompt="" v:val="VT0(0.15748031496063):24"/>
				<v:ud v:nameU="BotRightOffset" v:prompt="" v:val="VT0(0.15748031496063):24"/>
				<v:ud v:nameU="visVersion" v:prompt="" v:val="VT0(15):26"/>
				<v:ud v:nameU="TopLeftOffset" v:prompt="" v:val="VT0(0.13157645626809):1"/>
				<v:ud v:nameU="TopRightOffset" v:prompt="" v:val="VT0(0.13157645626809):1"/>
				<v:ud v:nameU="BotLeftOffset" v:prompt="" v:val="VT0(0.13157645626809):1"/>
				<v:ud v:nameU="BotRightOffset" v:prompt="" v:val="VT0(0.13157645626809):1"/>
			</v:userDefs>
			<v:textBlock v:margins="rect(4,4,4,4)" v:tabSpace="42.5197"/>
			<v:textRect cx="30.7882" cy="104.266" width="61.58" height="18.947"/>
			<path d="M9.47 113.74 L52.1 113.74 A9.47335 9.47335 -180 0 0 61.58 104.27 A9.47335 9.47335 -180 0 0 52.1 94.79 L9.47
						 94.79 A9.47335 9.47335 -180 0 0 -0 104.27 A9.47335 9.47335 -180 0 0 9.47 113.74 Z" class="st1"/>
			<text x="5.24" y="107.27" class="st2" v:langID="1038"><v:paragraph v:horizAlign="1"/><v:tabList/>Subsystem 1</text>		</g>
		<g id="shape394-22" v:mID="394" v:groupContext="shape" v:layerMember="0" transform="translate(18.4882,-53.3378)">
			<title>Dynamic connector.394</title>
			<path d="M2.27 106.65 L11.91 106.65" class="st3"/>
		</g>
		<g id="shape395-25" v:mID="395" v:groupContext="shape" v:layerMember="0" transform="translate(41.5433,-53.3829)">
			<title>Dynamic connector.395</title>
			<path d="M2.27 106.65 L11.91 106.65" class="st3"/>
		</g>
		<g id="shape345-28" v:mID="345" v:groupContext="shape" transform="translate(8.66142,-86.3099)">
			<title>Rounded Rectangle.345</title>
			<desc>System</desc>
			<v:userDefs>
				<v:ud v:nameU="CTypeTopLeftSnip" v:prompt="" v:val="VT0(0):5"/>
				<v:ud v:nameU="CTypeTopRightSnip" v:prompt="" v:val="VT0(0):5"/>
				<v:ud v:nameU="CTypeBotLeftSnip" v:prompt="" v:val="VT0(0):5"/>
				<v:ud v:nameU="CTypeBotRightSnip" v:prompt="" v:val="VT0(0):5"/>
				<v:ud v:nameU="CornerLockHoriz" v:prompt="" v:val="VT0(1):5"/>
				<v:ud v:nameU="CornerLockVert" v:prompt="" v:val="VT0(1):5"/>
				<v:ud v:nameU="CornerLockDiag" v:prompt="" v:val="VT0(0):5"/>
				<v:ud v:nameU="TopLeftOffset" v:prompt="" v:val="VT0(0.15748031496063):24"/>
				<v:ud v:nameU="TopRightOffset" v:prompt="" v:val="VT0(0.15748031496063):24"/>
				<v:ud v:nameU="BotLeftOffset" v:prompt="" v:val="VT0(0.15748031496063):24"/>
				<v:ud v:nameU="BotRightOffset" v:prompt="" v:val="VT0(0.15748031496063):24"/>
				<v:ud v:nameU="visVersion" v:prompt="" v:val="VT0(15):26"/>
				<v:ud v:nameU="TopLeftOffset" v:prompt="" v:val="VT0(0.11614173228346):1"/>
				<v:ud v:nameU="TopRightOffset" v:prompt="" v:val="VT0(0.11614173228346):1"/>
				<v:ud v:nameU="BotLeftOffset" v:prompt="" v:val="VT0(0.11614173228346):1"/>
				<v:ud v:nameU="BotRightOffset" v:prompt="" v:val="VT0(0.11614173228346):1"/>
			</v:userDefs>
			<v:textBlock v:margins="rect(4,4,4,4)" v:tabSpace="42.5197"/>
			<v:textRect cx="134.575" cy="100.274" width="269.15" height="26.9291"/>
			<path d="M8.36 113.74 L260.79 113.74 A8.36207 8.36207 -180 0 0 269.15 105.38 L269.15 95.17 A8.36207 8.36207 -180 0 0
						 260.79 86.81 L8.36 86.81 A8.36207 8.36207 -180 0 0 -0 95.17 L0 105.38 A8.36207 8.36207 -180 0 0 8.36 113.74
						 Z" class="st1"/>
			<text x="119.9" y="103.27" class="st2" v:langID="1038"><v:paragraph v:horizAlign="1"/><v:tabList/>System</text>		</g>
		<g id="group354-31" transform="translate(176.366,-50.4661)" v:mID="354" v:groupContext="group">
			<title>Sheet.354</title>
			<g id="shape348-32" v:mID="348" v:groupContext="shape" transform="translate(8.81967,0)">
				<title>Circle.348</title>
				<v:userDefs>
					<v:ud v:nameU="visVersion" v:val="VT0(15):26"/>
				</v:userDefs>
				<path d="M0 113.25 a0.484784 0.484784 0 0 1 0.969568 0 a0.484784 0.484784 0 1 1 -0.969568 0 Z" class="st4"/>
			</g>
			<g id="shape349-34" v:mID="349" v:groupContext="shape" transform="translate(17.6393,0)">
				<title>Circle.349</title>
				<v:userDefs>
					<v:ud v:nameU="visVersion" v:val="VT0(15):26"/>
				</v:userDefs>
				<path d="M0 113.25 a0.484784 0.484784 0 0 1 0.969568 0 a0.484784 0.484784 0 1 1 -0.969568 0 Z" class="st4"/>
			</g>
			<g id="shape350-36" v:mID="350" v:groupContext="shape">
				<title>Circle.350</title>
				<v:userDefs>
					<v:ud v:nameU="visVersion" v:val="VT0(15):26"/>
				</v:userDefs>
				<path d="M0 113.25 a0.484784 0.484784 0 0 1 0.969568 0 a0.484784 0.484784 0 1 1 -0.969568 0 Z" class="st4"/>
			</g>
		</g>
		<g id="shape356-38" v:mID="356" v:groupContext="shape" v:layerMember="0" transform="translate(12.9134,-59.9026)">
			<title>Dynamic connector.356</title>
			<path d="M7.09 109.72 L7.09 109.36 L7.09 88.23" class="st5"/>
		</g>
		<g id="shape357-44" v:mID="357" v:groupContext="shape" v:layerMember="0" transform="translate(35.5906,-60.4244)">
			<title>Dynamic connector.357</title>
			<path d="M7.09 109.72 L7.09 109.36 L7.09 88.23" class="st5"/>
		</g>
		<g id="shape358-49" v:mID="358" v:groupContext="shape" v:layerMember="0" transform="translate(95.1181,-59.9026)">
			<title>Dynamic connector.358</title>
			<path d="M7.09 109.72 L7.09 109.36 L7.09 88.23" class="st5"/>
		</g>
		<g id="shape359-54" v:mID="359" v:groupContext="shape" v:layerMember="0" transform="translate(112.126,-59.9026)">
			<title>Dynamic connector.359</title>
			<path d="M7.09 109.72 L7.09 109.36 L7.09 88.23" class="st5"/>
		</g>
		<g id="shape360-59" v:mID="360" v:groupContext="shape" v:layerMember="0" transform="translate(129.134,-59.9026)">
			<title>Dynamic connector.360</title>
			<path d="M7.09 109.72 L7.09 109.36 L7.09 88.23" class="st5"/>
		</g>
		<g id="shape361-64" v:mID="361" v:groupContext="shape" v:layerMember="0" transform="translate(219.843,-60.4244)">
			<title>Dynamic connector.361</title>
			<path d="M7.09 109.72 L7.09 109.36 L7.09 88.23" class="st5"/>
		</g>
		<g id="shape362-69" v:mID="362" v:groupContext="shape" v:layerMember="0" transform="translate(24.252,-60.4244)">
			<title>Dynamic connector.362</title>
			<path d="M7.09 113.74 L7.09 92.61" class="st7"/>
		</g>
		<g id="shape363-75" v:mID="363" v:groupContext="shape" v:layerMember="0" transform="translate(46.9291,-60.4244)">
			<title>Dynamic connector.363</title>
			<path d="M7.09 113.74 L7.09 92.61" class="st7"/>
		</g>
		<g id="shape364-80" v:mID="364" v:groupContext="shape" v:layerMember="0" transform="translate(103.622,-60.7981)">
			<title>Dynamic connector.364</title>
			<path d="M7.09 113.74 L7.09 92.61" class="st7"/>
		</g>
		<g id="shape365-85" v:mID="365" v:groupContext="shape" v:layerMember="0" transform="translate(120.63,-60.4244)">
			<title>Dynamic connector.365</title>
			<path d="M7.09 113.74 L7.09 92.61" class="st7"/>
		</g>
		<g id="shape366-90" v:mID="366" v:groupContext="shape" v:layerMember="0" transform="translate(137.638,-60.7981)">
			<title>Dynamic connector.366</title>
			<path d="M7.09 113.74 L7.09 92.61" class="st7"/>
		</g>
		<g id="shape367-95" v:mID="367" v:groupContext="shape" v:layerMember="0" transform="translate(259.528,-60.7981)">
			<title>Dynamic connector.367</title>
			<path d="M7.09 113.74 L7.09 92.61" class="st7"/>
		</g>
		<g id="shape370-100" v:mID="370" v:groupContext="shape" transform="translate(133.501,74.2571) rotate(90)">
			<title>Right Brace</title>
			<v:userDefs>
				<v:ud v:nameU="visVersion" v:prompt="" v:val="VT0(15):26"/>
			</v:userDefs>
			<path d="M-0 113.74 A19.184 4.33081 -180 0 0 3.21 111.71 L3.21 107.95 L6.41 107.95 L3.21 107.95 L3.21 104.2 A19.184 4.33081
						 -180 0 0 0 102.16" class="st9"/>
		</g>
		<g id="shape371-103" v:mID="371" v:groupContext="shape" transform="translate(156.178,74.2571) rotate(90)">
			<title>Right Brace.371</title>
			<v:userDefs>
				<v:ud v:nameU="visVersion" v:prompt="" v:val="VT0(15):26"/>
			</v:userDefs>
			<path d="M-0 113.74 A19.184 4.33081 -180 0 0 3.21 111.71 L3.21 107.95 L6.41 107.95 L3.21 107.95 L3.21 104.2 A19.184 4.33081
						 -180 0 0 0 102.16" class="st9"/>
		</g>
		<g id="shape372-106" v:mID="372" v:groupContext="shape" transform="translate(133.501,92.2024) rotate(90)">
			<title>Right Brace.372</title>
			<v:userDefs>
				<v:ud v:nameU="visVersion" v:prompt="" v:val="VT0(15):26"/>
			</v:userDefs>
			<path d="M-0 113.74 A7.03173 4.6969 -180 0 0 3.21 110.9 L3.21 96.61 L6.41 96.61 L3.21 96.61 L3.21 82.32 A7.03173 4.6969
						 -180 0 0 -0 79.48" class="st9"/>
		</g>
		<g id="shape373-109" v:mID="373" v:groupContext="shape" transform="translate(17.1654,-18.8002)">
			<title>Sheet.373</title>
			<desc>$S_1$</desc>
			<v:textBlock v:margins="rect(4,4,4,4)" v:tabSpace="42.5197"/>
			<v:textRect cx="20.5512" cy="106.652" width="41.11" height="14.1732"/>
			<rect x="0" y="99.5658" width="41.1024" height="14.1732" class="st10"/>
			<text x="4" y="110.25" class="st11" v:langID="1038"><v:paragraph/><v:tabList/>$S_1$</text>		</g>
		<g id="shape374-112" v:mID="374" v:groupContext="shape" transform="translate(38.4252,-18.8002)">
			<title>Sheet.374</title>
			<desc>$S_1$</desc>
			<v:textBlock v:margins="rect(4,4,4,4)" v:tabSpace="42.5197"/>
			<v:textRect cx="20.5512" cy="106.652" width="41.11" height="14.1732"/>
			<rect x="0" y="99.5658" width="41.1024" height="14.1732" class="st10"/>
			<text x="4" y="110.25" class="st11" v:langID="1038"><v:paragraph/><v:tabList/>$S_1$</text>		</g>
		<g id="shape375-115" v:mID="375" v:groupContext="shape" transform="translate(28.5039,-0.375)">
			<title>Sheet.375</title>
			<desc>$D_1$</desc>
			<v:textBlock v:margins="rect(4,4,4,4)" v:tabSpace="42.5197"/>
			<v:textRect cx="20.5512" cy="106.652" width="41.11" height="14.1732"/>
			<rect x="0" y="99.5658" width="41.1024" height="14.1732" class="st10"/>
			<text x="4" y="110.25" class="st11" v:langID="1038"><v:paragraph/><v:tabList/>$D_1$</text>		</g>
		<g id="shape376-118" v:mID="376" v:groupContext="shape" transform="translate(55.4331,-64.1545)">
			<title>Sheet.376</title>
			<desc>$V_1=2$</desc>
			<v:textBlock v:margins="rect(4,4,4,4)" v:tabSpace="42.5197"/>
			<v:textRect cx="26.2205" cy="106.652" width="52.45" height="14.1732"/>
			<rect x="0" y="99.5658" width="52.4409" height="14.1732" class="st10"/>
			<text x="4" y="110.25" class="st11" v:langID="1038"><v:paragraph/><v:tabList/>$V_1=2$</text>		</g>
		<g id="shape377-121" v:mID="377" v:groupContext="shape" transform="translate(146.142,-64.1545)">
			<title>Sheet.377</title>
			<desc>$V_2=3$</desc>
			<v:textBlock v:margins="rect(4,4,4,4)" v:tabSpace="42.5197"/>
			<v:textRect cx="26.2205" cy="106.652" width="52.45" height="14.1732"/>
			<rect x="0" y="99.5658" width="52.4409" height="14.1732" class="st10"/>
			<text x="4" y="110.25" class="st11" v:langID="1038"><v:paragraph/><v:tabList/>$V_2=3$</text>		</g>
		<g id="shape379-124" v:mID="379" v:groupContext="shape" transform="translate(269.449,-64.1545)">
			<title>Sheet.379</title>
			<desc>$V_n=1$</desc>
			<v:textBlock v:margins="rect(4,4,4,4)" v:tabSpace="42.5197"/>
			<v:textRect cx="26.2205" cy="106.652" width="52.45" height="14.1732"/>
			<rect x="0" y="99.5658" width="52.4409" height="14.1732" class="st10"/>
			<text x="4" y="110.25" class="st11" v:langID="1038"><v:paragraph/><v:tabList/>$V_n=1$</text>		</g>
		<g id="shape380-127" v:mID="380" v:groupContext="shape" transform="translate(215.705,73.9681) rotate(90)">
			<title>Right Brace.380</title>
			<v:userDefs>
				<v:ud v:nameU="visVersion" v:prompt="" v:val="VT0(15):26"/>
			</v:userDefs>
			<path d="M0 113.74 A19.184 3.2704 -180 0 0 3.21 112.2 L3.21 109.37 L6.41 109.37 L3.21 109.37 L3.21 106.53 A19.184 3.2704
						 -180 0 0 0 105" class="st9"/>
		</g>
		<g id="shape381-130" v:mID="381" v:groupContext="shape" transform="translate(232.268,73.9681) rotate(90)">
			<title>Right Brace.381</title>
			<v:userDefs>
				<v:ud v:nameU="visVersion" v:prompt="" v:val="VT0(15):26"/>
			</v:userDefs>
			<path d="M0 113.74 A19.184 3.2704 -180 0 0 3.21 112.2 L3.21 109.37 L6.41 109.37 L3.21 109.37 L3.21 106.53 A19.184 3.2704
						 -180 0 0 0 105" class="st9"/>
		</g>
		<g id="shape382-133" v:mID="382" v:groupContext="shape" transform="translate(215.705,91.9133) rotate(90)">
			<title>Right Brace.382</title>
			<v:userDefs>
				<v:ud v:nameU="visVersion" v:prompt="" v:val="VT0(15):26"/>
			</v:userDefs>
			<path d="M-0 113.74 A7.03173 5.94069 -180 0 0 3.21 110.15 L3.21 92.08 L6.41 92.08 L3.21 92.08 L3.21 74 A7.03173 5.94069
						 -180 0 0 -0 70.41" class="st9"/>
		</g>
		<g id="shape383-136" v:mID="383" v:groupContext="shape" transform="translate(98.5197,-19.0893)">
			<title>Sheet.383</title>
			<desc>$S_2$</desc>
			<v:textBlock v:margins="rect(4,4,4,4)" v:tabSpace="42.5197"/>
			<v:textRect cx="20.5512" cy="106.652" width="41.11" height="14.1732"/>
			<rect x="0" y="99.5658" width="41.1024" height="14.1732" class="st10"/>
			<text x="4" y="110.25" class="st11" v:langID="1038"><v:paragraph/><v:tabList/>$S_2$</text>		</g>
		<g id="shape384-139" v:mID="384" v:groupContext="shape" transform="translate(114.961,-19.3671)">
			<title>Sheet.384</title>
			<desc>$S_2$</desc>
			<v:textBlock v:margins="rect(4,4,4,4)" v:tabSpace="42.5197"/>
			<v:textRect cx="20.5512" cy="106.652" width="41.11" height="14.1732"/>
			<rect x="0" y="99.5658" width="41.1024" height="14.1732" class="st10"/>
			<text x="4" y="110.25" class="st11" v:langID="1038"><v:paragraph/><v:tabList/>$S_2$</text>		</g>
		<g id="shape385-142" v:mID="385" v:groupContext="shape" transform="translate(114.252,-0.375)">
			<title>Sheet.385</title>
			<desc>$D_2$</desc>
			<v:textBlock v:margins="rect(4,4,4,4)" v:tabSpace="42.5197"/>
			<v:textRect cx="20.5512" cy="106.652" width="41.11" height="14.1732"/>
			<rect x="0" y="99.5658" width="41.1024" height="14.1732" class="st10"/>
			<text x="4" y="110.25" class="st11" v:langID="1038"><v:paragraph/><v:tabList/>$D_2$</text>		</g>
		<g id="shape386-145" v:mID="386" v:groupContext="shape" transform="translate(249.959,73.9681) rotate(90)">
			<title>Right Brace.386</title>
			<v:userDefs>
				<v:ud v:nameU="visVersion" v:prompt="" v:val="VT0(15):26"/>
			</v:userDefs>
			<path d="M0 113.74 A19.184 3.2704 -180 0 0 3.21 112.2 L3.21 109.37 L6.41 109.37 L3.21 109.37 L3.21 106.53 A19.184 3.2704
						 -180 0 0 0 105" class="st9"/>
		</g>
		<g id="shape387-148" v:mID="387" v:groupContext="shape" transform="translate(131.969,-20.2175)">
			<title>Sheet.387</title>
			<desc>$S_2$</desc>
			<v:textBlock v:margins="rect(4,4,4,4)" v:tabSpace="42.5197"/>
			<v:textRect cx="20.5512" cy="106.652" width="41.11" height="14.1732"/>
			<rect x="0" y="99.5658" width="41.1024" height="14.1732" class="st10"/>
			<text x="4" y="110.25" class="st11" v:langID="1038"><v:paragraph/><v:tabList/>$S_2$</text>		</g>
		<g id="shape388-151" v:mID="388" v:groupContext="shape" transform="translate(341.847,73.9681) rotate(90)">
			<title>Right Brace.388</title>
			<v:userDefs>
				<v:ud v:nameU="visVersion" v:prompt="" v:val="VT0(15):26"/>
			</v:userDefs>
			<path d="M0 113.74 A19.184 14.4047 -180 0 0 3.21 106.98 L3.21 94.49 L6.41 94.49 L3.21 94.49 L3.21 82 A19.184 14.4047
						 -180 0 0 0 75.23" class="st9"/>
		</g>
		<g id="shape390-154" v:mID="390" v:groupContext="shape" transform="translate(341.847,91.9133) rotate(90)">
			<title>Right Brace.390</title>
			<v:userDefs>
				<v:ud v:nameU="visVersion" v:prompt="" v:val="VT0(15):26"/>
			</v:userDefs>
			<path d="M-0 113.74 A7.03173 5.27993 -180 0 0 3.21 110.55 L3.21 94.49 L6.41 94.49 L3.21 94.49 L3.21 78.42 A7.03173 5.27993
						 -180 0 0 -0 75.23" class="st9"/>
		</g>
		<g id="shape391-157" v:mID="391" v:groupContext="shape" transform="translate(238.268,-19.0893)">
			<title>Sheet.391</title>
			<desc>$S_n$</desc>
			<v:textBlock v:margins="rect(4,4,4,4)" v:tabSpace="42.5197"/>
			<v:textRect cx="20.5512" cy="106.652" width="41.11" height="14.1732"/>
			<rect x="0" y="99.5658" width="41.1024" height="14.1732" class="st10"/>
			<text x="4" y="110.25" class="st11" v:langID="1038"><v:paragraph/><v:tabList/>$S_n$</text>		</g>
		<g id="shape393-160" v:mID="393" v:groupContext="shape" transform="translate(238.268,-0.664079)">
			<title>Sheet.393</title>
			<desc>$D_n$</desc>
			<v:textBlock v:margins="rect(4,4,4,4)" v:tabSpace="42.5197"/>
			<v:textRect cx="20.5512" cy="106.652" width="41.11" height="14.1732"/>
			<rect x="0" y="99.5658" width="41.1024" height="14.1732" class="st10"/>
			<text x="4" y="110.25" class="st11" v:langID="1038"><v:paragraph/><v:tabList/>$D_n$</text>		</g>
	</g>
</svg>
